<?xml version="1.0" standalone="no"?>
<!DOCTYPE svg PUBLIC "-//W3C//DTD SVG 20010904//EN"
 "http://www.w3.org/TR/2001/REC-SVG-20010904/DTD/svg10.dtd">
<svg version="1.0" xmlns="http://www.w3.org/2000/svg"
 width="1088.000000pt" height="712.000000pt" viewBox="0 0 1088.000000 712.000000"
 preserveAspectRatio="xMidYMid meet">
<metadata>
Created by potrace 1.15, written by Peter Selinger 2001-2017
</metadata>
<g transform="translate(0.000000,712.000000) scale(0.100000,-0.100000)"
fill="#000000" stroke="none">
<path d="M5270 6679 c-207 -14 -346 -44 -514 -112 -139 -57 -277 -152 -297
-205 -2 -5 -53 -19 -114 -31 -115 -23 -196 -54 -253 -98 -71 -54 -193 -283
-273 -513 -29 -85 -33 -106 -32 -200 1 -196 96 -786 149 -923 4 -12 -5 -19
-35 -28 -22 -6 -42 -18 -45 -25 -3 -7 -8 -80 -12 -161 -19 -423 92 -741 310
-884 l64 -42 27 -115 c72 -305 151 -457 256 -494 28 -9 29 -13 29 -68 0 -85
-33 -110 -100 -75 l-30 15 -34 -67 c-86 -172 -249 -333 -401 -398 -22 -9 -245
-88 -495 -175 -1143 -398 -1760 -628 -1990 -743 -91 -45 -109 -59 -137 -100
-74 -111 -111 -307 -120 -629 l-6 -218 4318 0 4318 0 -6 228 c-9 320 -45 507
-120 620 -28 40 -47 54 -137 99 -238 119 -912 370 -2090 778 -195 68 -373 131
-395 140 -151 64 -332 246 -405 406 -13 30 -25 55 -26 57 -1 2 -16 -4 -33 -12
-67 -35 -101 -9 -101 76 0 53 2 57 29 66 105 37 185 191 256 494 l28 117 58
36 c84 52 153 133 209 250 85 174 117 363 106 625 -8 199 -8 200 -57 200 -22
0 -39 3 -39 8 0 4 13 72 29 152 93 462 91 822 -5 1025 -32 69 -258 351 -364
456 -97 96 -184 157 -315 222 -123 61 -227 97 -525 179 l-255 71 -150 3 c-82
1 -206 -2 -275 -7z m666 -167 c391 -107 547 -174 703 -299 87 -69 149 -137
301 -328 161 -203 184 -271 183 -555 0 -236 -45 -556 -111 -792 l-19 -68 62 0
63 0 7 -104 c13 -186 -21 -419 -80 -553 -55 -123 -175 -250 -253 -268 -26 -5
-28 -12 -55 -137 -34 -159 -69 -273 -109 -353 -37 -75 -52 -91 -110 -121 -52
-27 -72 -52 -82 -103 -9 -48 12 -156 37 -187 24 -31 74 -54 116 -54 23 0 34
-8 52 -37 44 -74 147 -199 200 -244 140 -118 165 -130 684 -309 1170 -405
1913 -682 2068 -774 58 -33 91 -98 117 -227 21 -105 40 -309 40 -430 l0 -79
-4217 0 -4216 0 6 153 c11 266 46 456 99 532 12 19 43 46 68 59 186 101 967
391 2186 812 169 58 330 117 358 131 140 71 278 195 366 331 50 77 53 80 97
85 91 10 136 73 137 192 1 87 -15 115 -82 149 -26 13 -54 32 -63 42 -52 60
-119 248 -160 452 -21 106 -23 111 -50 117 -48 11 -137 83 -185 151 -105 147
-146 313 -147 592 0 137 3 186 12 191 7 5 37 14 67 21 30 7 54 17 54 21 0 4
-11 29 -25 56 -34 64 -68 203 -104 425 -44 261 -63 420 -64 523 -1 106 25 186
128 402 78 163 114 216 169 248 53 31 178 63 282 73 l79 7 6 39 c8 49 43 80
159 140 219 113 458 157 825 152 l140 -2 261 -72z"/>
<path d="M2025 5739 c-168 -11 -280 -30 -397 -69 -155 -52 -290 -131 -325
-191 -11 -19 -25 -29 -41 -29 -43 0 -166 -32 -220 -58 -73 -34 -123 -95 -192
-236 -81 -165 -130 -315 -130 -397 0 -155 85 -690 125 -790 4 -12 -3 -18 -27
-25 -42 -12 -47 -37 -47 -235 -2 -291 60 -487 195 -623 29 -28 67 -60 86 -70
32 -17 35 -24 65 -145 57 -234 121 -357 203 -391 28 -11 30 -16 30 -61 0 -60
-19 -74 -69 -53 -18 8 -35 14 -37 14 -2 0 -12 -20 -23 -44 -45 -103 -158 -235
-261 -304 -45 -30 -130 -68 -202 -92 l-38 -12 0 -769 0 -769 138 0 139 0 6
218 c13 434 72 647 216 788 99 97 562 283 1686 679 198 70 362 128 364 130 2
2 -13 31 -33 63 -20 33 -36 64 -36 69 0 5 -6 17 -13 27 -11 16 -15 16 -49 2
-33 -14 -38 -14 -52 0 -10 9 -16 33 -16 59 0 38 3 44 30 55 36 15 92 75 118
127 26 50 75 207 98 310 17 74 22 84 47 94 56 24 154 134 196 222 64 133 82
216 88 414 3 94 2 201 -2 237 l-7 66 -34 0 c-19 0 -34 1 -34 3 0 1 12 58 26
127 14 69 27 161 30 205 2 44 9 157 15 250 13 187 4 269 -41 388 -40 106 -309
423 -435 512 -140 100 -284 157 -626 250 -231 63 -286 69 -514 54z m515 -157
c267 -75 293 -83 409 -138 166 -78 245 -146 426 -369 113 -138 141 -192 162
-313 12 -71 13 -106 4 -192 -6 -58 -11 -146 -11 -197 0 -95 -34 -309 -70 -439
-11 -38 -20 -73 -20 -77 0 -4 25 -7 56 -7 l56 0 -5 -177 c-3 -137 -10 -196
-26 -256 -46 -173 -149 -307 -262 -340 -10 -4 -20 -28 -28 -79 -30 -167 -93
-349 -140 -402 -9 -10 -33 -27 -53 -37 -21 -11 -45 -30 -54 -43 -18 -29 -21
-120 -4 -171 13 -39 62 -85 91 -85 10 0 19 -3 19 -7 0 -5 -157 -63 -348 -130
-913 -321 -1416 -523 -1558 -625 -25 -18 -68 -62 -95 -98 -115 -152 -173 -381
-186 -732 l-6 -178 -39 0 -38 0 0 683 0 684 68 26 c136 54 276 171 367 307 38
56 48 65 76 67 73 5 122 73 123 167 1 74 -15 104 -76 138 -76 42 -121 140
-176 389 -26 116 -29 123 -55 130 -63 17 -140 93 -192 190 -52 99 -75 208 -82
385 -8 197 -7 199 62 219 30 9 55 18 55 20 0 2 -11 25 -25 52 -44 86 -99 359
-132 661 -19 173 -15 210 37 345 38 100 114 252 147 296 14 18 49 44 77 57 50
22 199 54 257 54 25 0 29 4 29 29 0 38 56 87 153 135 143 69 277 100 497 115
221 15 268 10 510 -57z"/>
<path d="M8700 5739 c-319 -21 -566 -103 -692 -231 -38 -38 -66 -58 -81 -58
-37 0 -171 -37 -214 -59 -79 -40 -140 -124 -217 -298 -80 -182 -123 -336 -96
-353 12 -7 39 -244 40 -347 0 -55 41 -282 66 -367 19 -68 18 -73 -16 -81 -22
-5 -32 -14 -37 -33 -11 -46 -7 -364 6 -432 41 -220 133 -380 266 -462 38 -24
41 -30 59 -109 25 -117 63 -234 96 -299 30 -59 91 -124 128 -135 18 -5 22 -13
22 -50 0 -26 -6 -50 -16 -59 -14 -14 -19 -14 -51 -1 -46 20 -50 19 -57 -7 -3
-13 -24 -54 -46 -91 -23 -38 -40 -70 -38 -71 2 -1 197 -71 433 -154 793 -279
1192 -431 1421 -542 115 -57 149 -79 191 -123 138 -145 202 -424 203 -874 l0
-113 125 0 125 0 0 778 0 778 -77 32 c-145 59 -291 198 -359 339 -15 32 -29
60 -31 62 -2 3 -20 -3 -40 -13 -37 -17 -38 -17 -55 4 -10 12 -18 37 -18 55 0
29 6 37 44 59 85 50 140 159 196 388 16 66 31 122 32 123 2 1 20 11 40 24 102
61 198 210 240 371 20 76 23 109 23 315 l0 230 -35 5 c-19 3 -34 10 -33 15 1
6 13 69 26 140 36 187 46 288 48 476 1 172 -3 206 -28 299 -24 84 -45 120
-156 257 -188 234 -290 323 -471 409 -112 53 -194 80 -456 150 -230 62 -286
68 -510 53z m407 -129 c577 -148 683 -209 956 -550 146 -183 152 -201 152
-495 -1 -245 -13 -353 -69 -581 -18 -73 -31 -136 -28 -139 3 -3 28 -5 55 -5
l49 0 -5 -182 c-5 -207 -15 -258 -77 -384 -45 -91 -127 -177 -181 -189 -36 -8
-43 -22 -65 -135 -22 -115 -60 -233 -97 -303 -25 -47 -40 -63 -79 -83 -64 -32
-82 -68 -76 -149 9 -102 47 -152 122 -159 30 -3 41 -11 71 -56 89 -132 199
-232 323 -293 l62 -31 0 -693 0 -693 -23 0 c-24 0 -24 0 -30 168 -12 327 -70
576 -166 715 -65 94 -117 134 -275 212 -245 120 -844 348 -1651 627 -107 37
-115 42 -69 45 75 4 115 53 121 151 6 81 -7 117 -48 140 -60 33 -93 67 -120
127 -28 62 -69 205 -89 310 -17 88 -20 95 -39 95 -31 0 -111 61 -151 114 -96
128 -121 222 -127 472 l-5 190 60 18 61 19 -29 56 c-53 107 -85 289 -117 671
l-19 215 24 70 c37 111 136 308 176 353 45 49 118 76 257 95 l94 13 3 31 c7
74 230 183 452 223 59 10 258 25 387 29 33 0 112 -14 210 -39z"/>
</g>
</svg>
